<svg xmlns="http://www.w3.org/2000/svg" version="1.1" xmlns:xlink="http://www.w3.org/1999/xlink" xmlns:svgjs="http://svgjs.com/svgjs" width="1440" height="560" preserveAspectRatio="none" viewBox="0 0 1440 560"><g mask="url(&quot;#SvgjsMask1016&quot;)" fill="none"><rect width="1440" height="560" x="0" y="0" fill="rgba(238, 226, 220, 1)"></rect><path d="M0,483.25C92.689,491.717,180.946,452.944,263.649,410.246C353.302,363.96,449.631,316.081,496.678,226.825C544.639,135.833,538.305,26.421,519.239,-74.655C500.74,-172.725,459.082,-265.901,390.127,-338.047C323.1,-408.175,233.042,-449.712,138.798,-472.702C47.61,-494.946,-51.018,-504.244,-137.017,-466.637C-219.028,-430.774,-253.788,-338.17,-316.005,-273.82C-382.888,-204.644,-483.74,-164.757,-516.4,-74.247C-551.242,22.308,-552.136,140.45,-496.658,226.816C-442.173,311.636,-323.986,318.498,-234.409,364.748C-155.005,405.746,-88.992,475.12,0,483.25" fill="#dbc1b4"></path><path d="M1440 951.4870000000001C1510.914 936.65 1540.705 849.988 1605.379 817.3340000000001 1681.936 778.6800000000001 1796.974 815.498 1847.127 745.929 1895.4180000000001 678.942 1847.5430000000001 584.7139999999999 1831.467 503.71500000000003 1816.22 426.89300000000003 1806.9470000000001 345.66999999999996 1755.9 286.271 1704.763 226.769 1629.5430000000001 190.531 1552.008 178.53699999999998 1479.494 167.31900000000002 1405.609 187.7 1340.77 222.053 1283.46 252.41699999999997 1250.786 310.244 1209.308 360.10400000000004 1168.7730000000001 408.83000000000004 1118.629 450.49 1100.267 511.154 1080.241 577.314 1081.116 648.452 1102.092 714.317 1124.747 785.456 1162.129 854.3969999999999 1223.238 897.288 1285.459 940.96 1365.593 967.0550000000001 1440 951.4870000000001" fill="#ffffff"></path></g><defs><mask id="SvgjsMask1016"><rect width="1440" height="560" fill="#ffffff"></rect></mask></defs></svg>